<?xml version="1.0" standalone="no"?>
<svg xmlns:xlink="http://www.w3.org/1999/xlink" id="wave" style="transform:rotate(180deg); transition: 0.3s" viewBox="0 0 1440 280" version="1.1" xmlns="http://www.w3.org/2000/svg"><defs><linearGradient id="sw-gradient-0" x1="0" x2="0" y1="1" y2="0"><stop stop-color="rgba(22, 175, 175, 1)" offset="0%"/><stop stop-color="rgba(22, 175, 175, 1)" offset="100%"/></linearGradient></defs><path style="transform:translate(0, 0px); opacity:1" fill="url(#sw-gradient-0)" d="M0,112L80,135.3C160,159,320,205,480,186.7C640,168,800,84,960,65.3C1120,47,1280,93,1440,121.3C1600,149,1760,159,1920,144.7C2080,131,2240,93,2400,70C2560,47,2720,37,2880,60.7C3040,84,3200,140,3360,140C3520,140,3680,84,3840,93.3C4000,103,4160,177,4320,182C4480,187,4640,121,4800,93.3C4960,65,5120,75,5280,102.7C5440,131,5600,177,5760,172.7C5920,168,6080,112,6240,116.7C6400,121,6560,187,6720,200.7C6880,215,7040,177,7200,135.3C7360,93,7520,47,7680,23.3C7840,0,8000,0,8160,23.3C8320,47,8480,93,8640,130.7C8800,168,8960,196,9120,182C9280,168,9440,112,9600,84C9760,56,9920,56,10080,70C10240,84,10400,112,10560,112C10720,112,10880,84,11040,65.3C11200,47,11360,37,11440,32.7L11520,28L11520,280L11440,280C11360,280,11200,280,11040,280C10880,280,10720,280,10560,280C10400,280,10240,280,10080,280C9920,280,9760,280,9600,280C9440,280,9280,280,9120,280C8960,280,8800,280,8640,280C8480,280,8320,280,8160,280C8000,280,7840,280,7680,280C7520,280,7360,280,7200,280C7040,280,6880,280,6720,280C6560,280,6400,280,6240,280C6080,280,5920,280,5760,280C5600,280,5440,280,5280,280C5120,280,4960,280,4800,280C4640,280,4480,280,4320,280C4160,280,4000,280,3840,280C3680,280,3520,280,3360,280C3200,280,3040,280,2880,280C2720,280,2560,280,2400,280C2240,280,2080,280,1920,280C1760,280,1600,280,1440,280C1280,280,1120,280,960,280C800,280,640,280,480,280C320,280,160,280,80,280L0,280Z"/></svg>